<?xml version="1.0" ?><svg id="object" viewBox="0 0 32 32" xmlns="http://www.w3.org/2000/svg"><defs><style>.cls-1{fill:#d6b5b0;}.cls-2{fill:#ffd599;}.cls-3{fill:#e4ab7b;}.cls-4{fill:#bf9e99;}</style></defs><title/><path class="cls-1" d="M15,30.69l.27.11L15,30.71Z"/><path class="cls-2" d="M30.38,2.43A19.72,19.72,0,0,0,16,2.28a19.72,19.72,0,0,0-14.38.15A1,1,0,0,0,1,3.36V30a1,1,0,0,0,1.38.93,17.63,17.63,0,0,1,13.24,0,1.1,1.1,0,0,0,.76,0,17.63,17.63,0,0,1,13.24,0A1,1,0,0,0,30,31a1,1,0,0,0,1-1V3.36A1,1,0,0,0,30.38,2.43Z"/><path class="cls-3" d="M16.38,30.93a17.63,17.63,0,0,1,13.24,0A1,1,0,0,0,30,31a1,1,0,0,0,1-1V3.36a1,1,0,0,0-.62-.93A19.72,19.72,0,0,0,16,2.28V31A1,1,0,0,0,16.38,30.93Z"/><path class="cls-1" d="M15,2V30.71a6.5,6.5,0,0,1,.62.22,1.1,1.1,0,0,0,.76,0,6.5,6.5,0,0,1,.62-.22V2c-.33.1-.67.2-1,.32C15.67,2.16,15.33,2.06,15,2Z"/><path class="cls-4" d="M16.38,30.93a6.5,6.5,0,0,1,.62-.22V2c-.33.1-.67.2-1,.32V31A1,1,0,0,0,16.38,30.93Z"/></svg>