<?xml version="1.0" ?><svg id="object" viewBox="0 0 32 32" xmlns="http://www.w3.org/2000/svg"><defs><style>.cls-1{fill:#ff9797;}.cls-2{fill:#e47979;}.cls-3{fill:#ffd599;}.cls-4{fill:#e4ab7b;}</style></defs><title/><path class="cls-1" d="M24,1H8A3,3,0,0,0,5,4V26a1,1,0,0,0,2,0,3,3,0,0,1,3-3H26a1,1,0,0,0,1-1V4A3,3,0,0,0,24,1Z"/><path class="cls-2" d="M27,4V22a1,1,0,0,1-1,1H16V1h8A3,3,0,0,1,27,4Z"/><path class="cls-3" d="M27,21H10.22A5.16,5.16,0,0,0,5,25.5,5,5,0,0,0,10,31H24a3,3,0,0,0,3-3Z"/><path class="cls-4" d="M27,21v7a3,3,0,0,1-3,3H16V21Z"/></svg>